<svg width="1533" height="1538" viewBox="0 0 1533 1538" fill="none" xmlns="http://www.w3.org/2000/svg">
<path d="M401.478 75H1133C1312.49 75 1458 220.507 1458 400V911C1458 1090.49 1312.49 1236 1133 1236H630.5C613.254 1236 596.543 1241.94 583.177 1252.81L582.543 1253.34C478.305 1340.03 409.799 1386.78 280.588 1463H276V1252H201L240.031 1187.96C138.13 1125.85 76.6359 1014.52 78.3262 895.198L85.5322 386.501C87.9793 213.755 228.714 75 401.478 75Z" stroke="white" stroke-width="150" stroke-linejoin="round"/>
<path d="M278.498 1124C321.579 1164.2 337.552 1192.63 351 1252H200.5L278.498 1124Z" fill="white"/>
<path d="M611 702C611 685.431 624.431 672 641 672H816C832.569 672 846 685.431 846 702V1162H611V702Z" fill="white"/>
<path d="M969 451C969 434.431 982.431 421 999 421H1174C1190.57 421 1204 434.431 1204 451V1162H969V451Z" fill="white"/>
</svg>
